<?xml version="1.0" encoding="utf-8"?>
<!-- Generator: Adobe Illustrator 18.0.0, SVG Export Plug-In . SVG Version: 6.00 Build 0)  -->
<!DOCTYPE svg PUBLIC "-//W3C//DTD SVG 1.0//EN" "http://www.w3.org/TR/2001/REC-SVG-20010904/DTD/svg10.dtd">
<svg version="1.0" id="Layer_1" xmlns="http://www.w3.org/2000/svg" xmlns:xlink="http://www.w3.org/1999/xlink" x="0px" y="0px"
	 viewBox="0 0 420 173" enable-background="new 0 0 420 173" xml:space="preserve">
<g>
	<defs>
		<rect id="SVGID_1_" x="17" y="-15.9" width="542.6" height="203.2"/>
	</defs>
	<clipPath id="SVGID_2_">
		<use xlink:href="#SVGID_1_"  overflow="visible"/>
	</clipPath>
	<g clip-path="url(#SVGID_2_)">
		<path fill="#00AEEF" d="M172.9,30.2c-0.4,0-0.7-0.1-0.9-0.4c-0.2-0.3-0.4-0.6-0.4-1s0.1-0.7,0.4-1c0.2-0.3,0.6-0.4,0.9-0.4
			c0.4,0,0.7,0.1,0.9,0.4c0.2,0.3,0.4,0.6,0.4,1s-0.1,0.7-0.4,1C173.6,30,173.3,30.2,172.9,30.2z M172.9,27.4
			c-0.4,0-0.7,0.1-0.9,0.4c-0.2,0.3-0.4,0.6-0.4,1s0.1,0.7,0.4,1c0.2,0.3,0.5,0.4,0.9,0.4c0.4,0,0.7-0.1,0.9-0.4
			c0.2-0.3,0.4-0.6,0.4-1c0-0.4-0.1-0.7-0.4-1C173.6,27.6,173.3,27.4,172.9,27.4z M172.9,24.6c-0.4,0-0.7-0.1-0.9-0.4
			c-0.2-0.3-0.4-0.6-0.4-1c0-0.4,0.1-0.7,0.4-1c0.2-0.3,0.6-0.4,0.9-0.4c0.4,0,0.7,0.1,0.9,0.4c0.2,0.3,0.4,0.6,0.4,1
			c0,0.4-0.1,0.7-0.4,1C173.6,24.5,173.3,24.6,172.9,24.6z M172.9,21.9c-0.4,0-0.7,0.1-0.9,0.4c-0.2,0.3-0.4,0.6-0.4,1
			c0,0.4,0.1,0.7,0.4,1c0.2,0.3,0.5,0.4,0.9,0.4c0.4,0,0.7-0.1,0.9-0.4c0.2-0.3,0.4-0.6,0.4-1c0-0.4-0.1-0.7-0.4-1
			C173.6,22,173.3,21.9,172.9,21.9z"/>
	</g>
	<g clip-path="url(#SVGID_2_)">
		<path fill="#00AEEF" d="M179.5,30.2c-0.4,0-0.7-0.1-0.9-0.4c-0.2-0.3-0.4-0.6-0.4-1s0.1-0.7,0.4-1c0.2-0.3,0.6-0.4,0.9-0.4
			c0.4,0,0.7,0.1,0.9,0.4c0.2,0.3,0.4,0.6,0.4,1s-0.1,0.7-0.4,1C180.2,30,179.9,30.2,179.5,30.2z M179.5,27.4
			c-0.4,0-0.7,0.1-0.9,0.4c-0.2,0.3-0.4,0.6-0.4,1c0,0.4,0.1,0.7,0.4,1c0.2,0.3,0.5,0.4,0.9,0.4c0.4,0,0.7-0.1,0.9-0.4
			c0.2-0.3,0.4-0.6,0.4-1s-0.1-0.7-0.4-1C180.2,27.6,179.9,27.4,179.5,27.4z M179.5,24.6c-0.4,0-0.7-0.1-0.9-0.4
			c-0.2-0.3-0.4-0.6-0.4-1c0-0.4,0.1-0.7,0.4-1c0.2-0.3,0.6-0.4,0.9-0.4c0.4,0,0.7,0.1,0.9,0.4c0.2,0.3,0.4,0.6,0.4,1
			c0,0.4-0.1,0.7-0.4,1C180.2,24.5,179.9,24.6,179.5,24.6z M179.5,21.9c-0.4,0-0.7,0.1-0.9,0.4c-0.2,0.3-0.4,0.6-0.4,1
			c0,0.4,0.1,0.7,0.4,1c0.2,0.3,0.5,0.4,0.9,0.4c0.4,0,0.7-0.1,0.9-0.4c0.2-0.3,0.4-0.6,0.4-1c0-0.4-0.1-0.7-0.4-1
			C180.2,22,179.9,21.9,179.5,21.9z"/>
	</g>
</g>
<g>
	<path fill="#6FCCDC" d="M172,24.2c-0.2-0.3-0.4-0.6-0.4-1s0.1-0.7,0.4-1c0.2-0.3,0.5-0.4,0.9-0.4c0.4,0,0.7,0.1,0.9,0.4
		c0.2,0.3,0.4,0.6,0.4,1s-0.1,0.7-0.4,1c-0.2,0.3-0.5,0.4-0.9,0.4C172.6,24.6,172.3,24.5,172,24.2z M172,29.8
		c-0.2-0.3-0.4-0.6-0.4-1s0.1-0.7,0.4-1c0.2-0.3,0.5-0.4,0.9-0.4c0.4,0,0.7,0.1,0.9,0.4c0.2,0.3,0.4,0.6,0.4,1s-0.1,0.7-0.4,1
		c-0.2,0.3-0.5,0.4-0.9,0.4C172.6,30.2,172.3,30,172,29.8z"/>
	<path fill="#6FCCDC" d="M178.6,24.2c-0.2-0.3-0.4-0.6-0.4-1s0.1-0.7,0.4-1c0.2-0.3,0.5-0.4,0.9-0.4c0.4,0,0.7,0.1,0.9,0.4
		c0.2,0.3,0.4,0.6,0.4,1s-0.1,0.7-0.4,1c-0.2,0.3-0.5,0.4-0.9,0.4C179.2,24.6,178.9,24.5,178.6,24.2z M178.6,29.8
		c-0.2-0.3-0.4-0.6-0.4-1s0.1-0.7,0.4-1c0.2-0.3,0.5-0.4,0.9-0.4c0.4,0,0.7,0.1,0.9,0.4c0.2,0.3,0.4,0.6,0.4,1s-0.1,0.7-0.4,1
		c-0.2,0.3-0.5,0.4-0.9,0.4C179.2,30.2,178.9,30,178.6,29.8z"/>
</g>
<g>
	<path fill="#6FCCDC" d="M193,30.3h-2.1l-1.3-4.7l-1.3,4.7h-2l-2.7-8.6h2.5l1.2,4.8l1.2-4.8h2.2l1.2,4.8l1.2-4.8h2.5L193,30.3z
		 M191.3,29.8h1.4l2.4-7.6h-1.5l-1.4,5.3l-0.5,0l-1.3-5.3h-1.5l-1.3,5.3l-0.5,0l-1.4-5.3h-1.5l2.4,7.6h1.3l1.6-6.1L191.3,29.8z"/>
</g>
<g>
	<path fill="#6FCCDC" d="M183.9,22h2l1.4,5.5l1.4-5.5h1.9l1.4,5.5l1.4-5.5h2l-2.6,8.1h-1.8l-1.5-5.4l-1.4,5.4h-1.6L183.9,22z"/>
</g>
<g>
	<path fill="#6FCCDC" d="M197.9,30.1V18.7h2v4.6c0.6-0.9,1.5-1.4,2.6-1.4c0.8,0,1.4,0.2,1.8,0.6c0.4,0.4,0.7,1,0.7,1.8v5.8h-2V25
		c0-1-0.4-1.4-1.2-1.4c-0.5,0-1,0.3-1.3,0.8c-0.4,0.5-0.6,1.3-0.6,2.3v3.4H197.9z"/>
	<path fill="#6FCCDC" d="M207.9,27.8c0-0.8,0.3-1.4,1-1.9c0.6-0.5,1.5-0.7,2.5-0.7h1.3v-0.4c0-0.8-0.5-1.2-1.4-1.2
		c-0.7,0-1.2,0.3-1.4,0.9l-1.7-0.4c0.1-0.7,0.5-1.2,1-1.6c0.6-0.4,1.2-0.6,2-0.6c2.3,0,3.4,1.1,3.4,3.4v4.8H213l-0.2-1
		c-0.6,0.8-1.5,1.1-2.5,1.1c-0.7,0-1.3-0.2-1.8-0.6C208.1,29.1,207.9,28.5,207.9,27.8z M210,27.7c0,0.2,0.1,0.4,0.2,0.6
		c0.1,0.2,0.4,0.2,0.6,0.2c0.5,0,0.9-0.2,1.3-0.5c0.4-0.3,0.6-0.7,0.6-1.2v-0.2h-1.3C210.4,26.7,210,27,210,27.7z"/>
	<path fill="#6FCCDC" d="M217.1,23.7V22h1.2v-2l2-1.2V22h2.1v1.7h-2.1v3.5c0,0.5,0.1,0.8,0.3,1c0.2,0.2,0.4,0.3,0.8,0.3
		c0.3,0,0.5-0.1,0.8-0.2l0.5,1.6c-0.4,0.2-0.9,0.3-1.3,0.3c-0.9,0-1.7-0.2-2.2-0.8c-0.5-0.5-0.8-1.2-0.8-2.2v-3.5H217.1z"/>
	<path fill="#6FCCDC" d="M225.4,22.7l1.2-4h2.6l-2.4,4H225.4z"/>
	<path fill="#6FCCDC" d="M230,28l1.6-0.9c0.3,0.9,0.9,1.3,1.6,1.3c0.7,0,1-0.3,1-0.9c0-0.1,0-0.2-0.1-0.3s-0.2-0.2-0.3-0.3
		c-0.2-0.1-0.3-0.1-0.4-0.2c-0.1-0.1-0.3-0.1-0.6-0.2s-0.4-0.2-0.6-0.2c-0.5-0.2-0.9-0.5-1.2-0.8s-0.4-0.8-0.4-1.4
		c0-0.6,0.2-1.2,0.7-1.7s1.1-0.7,1.9-0.7c0.5,0,1,0.1,1.5,0.4c0.4,0.2,0.8,0.6,1.1,0.9l-1.2,1.1c-0.4-0.5-0.8-0.7-1.3-0.7
		c-0.2,0-0.4,0.1-0.5,0.2c-0.1,0.1-0.2,0.3-0.2,0.5c0,0.3,0.3,0.6,0.8,0.8c0.1,0,0.3,0.1,0.6,0.2c0.3,0.1,0.6,0.2,0.7,0.2
		c0.1,0.1,0.3,0.2,0.6,0.3c0.3,0.1,0.4,0.3,0.6,0.4c0.1,0.1,0.2,0.3,0.3,0.6c0.1,0.2,0.2,0.5,0.2,0.8c0,0.7-0.3,1.4-0.8,1.9
		c-0.5,0.5-1.2,0.8-2.1,0.8c-0.8,0-1.4-0.2-2-0.7C230.6,29.1,230.2,28.6,230,28z"/>
</g>
<g>
	<path fill="#6FBF59" d="M256.5,155.4v-1.7h6v1.7H256.5z"/>
	<path fill="#6FBF59" d="M265.9,158.8v-2.1l4-2.1l-4-2.1v-2.1l6.3,3.3v1.9L265.9,158.8z"/>
	<path fill="#6FBF59" d="M275.1,157.5l1.6-0.9c0.3,0.9,0.9,1.3,1.6,1.3c0.7,0,1-0.3,1-0.9c0-0.1,0-0.2-0.1-0.3s-0.2-0.2-0.3-0.3
		c-0.2-0.1-0.3-0.1-0.4-0.2c-0.1-0.1-0.3-0.1-0.6-0.2s-0.4-0.2-0.6-0.2c-0.5-0.2-0.9-0.5-1.2-0.8s-0.4-0.8-0.4-1.4
		c0-0.6,0.2-1.2,0.7-1.7s1.1-0.7,1.9-0.7c0.5,0,1,0.1,1.5,0.4c0.5,0.2,0.8,0.6,1.1,0.9l-1.2,1.1c-0.4-0.5-0.8-0.7-1.3-0.7
		c-0.2,0-0.4,0.1-0.5,0.2c-0.1,0.1-0.2,0.3-0.2,0.5c0,0.3,0.3,0.6,0.8,0.8c0.1,0,0.3,0.1,0.6,0.2c0.3,0.1,0.6,0.2,0.7,0.2
		c0.1,0.1,0.3,0.2,0.6,0.3c0.3,0.1,0.4,0.3,0.6,0.4c0.1,0.1,0.2,0.3,0.3,0.6c0.1,0.2,0.2,0.5,0.2,0.8c0,0.7-0.3,1.4-0.8,1.9
		c-0.5,0.5-1.2,0.8-2.1,0.8c-0.8,0-1.4-0.2-2-0.7C275.7,158.6,275.3,158.1,275.1,157.5z"/>
	<path fill="#6FBF59" d="M283.5,153.2v-1.7h1.2v-2l2-1.2v3.3h2.1v1.7h-2.1v3.5c0,0.5,0.1,0.8,0.3,1c0.2,0.2,0.4,0.3,0.8,0.3
		c0.3,0,0.5-0.1,0.8-0.2l0.5,1.6c-0.4,0.2-0.9,0.3-1.3,0.3c-0.9,0-1.7-0.2-2.2-0.8c-0.5-0.5-0.8-1.2-0.8-2.2v-3.5H283.5z"/>
	<path fill="#6FBF59" d="M292.8,158.5c-0.7-0.8-1.1-1.8-1.1-3s0.4-2.2,1.1-3c0.7-0.8,1.7-1.2,3-1.2s2.3,0.4,3,1.2
		c0.7,0.8,1.1,1.8,1.1,3s-0.4,2.2-1.1,3c-0.7,0.8-1.7,1.2-3,1.2S293.6,159.3,292.8,158.5z M294.3,153.8c-0.4,0.5-0.5,1.1-0.5,1.8
		s0.2,1.3,0.5,1.8s0.9,0.7,1.5,0.7s1.1-0.2,1.5-0.7s0.5-1.1,0.5-1.8s-0.2-1.3-0.5-1.8s-0.9-0.7-1.5-0.7S294.7,153.3,294.3,153.8z"/>
	<path fill="#6FBF59" d="M303.2,159.6v-8.1h2v1.3c0.3-0.5,0.6-0.8,1.1-1.1c0.4-0.3,0.9-0.4,1.3-0.4c0.3,0,0.6,0.1,1,0.2l-0.4,1.8
		c-0.2-0.2-0.5-0.2-0.8-0.2c-0.6,0-1.1,0.3-1.6,0.9c-0.4,0.6-0.6,1.5-0.6,2.7v2.9H303.2z"/>
	<path fill="#6FBF59" d="M311,151.5h2l1.9,5.1l1.8-5.1h2l-4.2,11.3h-1.9l1.4-3.8L311,151.5z"/>
	<path fill="#6FBF59" d="M320.6,159.6h7.3v1.7h-7.3V159.6z"/>
</g>
<g>
	<path fill="#4372B9" d="M35.8,96.7V82c4.3,0,7.2-0.8,8.9-2.4c1.7-1.6,2.5-4.5,2.5-8.8V47.8c0-4.1,1.3-7.3,3.8-9.8
		c2.5-2.5,5.8-3.7,10-3.7h12.2v14.6h-3.9c-2.3,0-3.8,0.4-4.6,1.3c-0.8,0.9-1.2,2.5-1.2,4.9v20.7c0,5-0.9,8.3-2.6,10.1
		c-1.7,1.8-4.2,2.9-7.4,3.3c3.3,0.4,5.7,1.6,7.4,3.3c1.7,1.8,2.5,5.2,2.5,10.1v20.7c0,2.4,0.4,4,1.2,4.9c0.8,0.9,2.4,1.3,4.6,1.3
		h3.9v14.6H61c-4.1,0-7.5-1.2-10-3.7c-2.5-2.5-3.8-5.7-3.8-9.8v-23.1c0-4.3-0.8-7.2-2.5-8.8C43.1,97.5,40.1,96.7,35.8,96.7z"/>
</g>
<g>
	<path fill="#1FA9E1" d="M89.9,137.5V40.9h17.9v36.7h38.7V40.9h17.9v96.6h-17.9V94.2h-38.7v43.3H89.9z"/>
</g>
<g>
	<path fill="#6FCCDC" d="M179.6,137.5V40.9h59.8v16.6h-41.8v20.3h33.6v16.6h-33.6v26.6h43.3v16.6H179.6z"/>
</g>
<g>
	<path fill="#5EC098" d="M257.2,137.5V40.9h35.2c9.4,0,16.6,2.5,21.7,7.5c5.1,5,7.6,11.7,7.6,19.9c0,6.4-1.6,11.9-4.7,16.5
		c-3.1,4.6-7.6,7.7-13.4,9.5l26.8,43.2h-20l-26-41.6h-9.4v41.6H257.2z M275.1,79.3h17.4c7.6,0,11.3-3.6,11.3-10.9
		s-3.8-10.9-11.3-10.9h-17.4V79.3z"/>
</g>
<g>
	<path fill="#6FBF59" d="M344.4,144.4v-14.6h3.9c2.3,0,3.9-0.4,4.7-1.3c0.8-0.9,1.2-2.5,1.2-4.9v-20.7c0-5,0.9-8.3,2.6-10.1
		c1.7-1.8,4.2-2.9,7.4-3.3c-3.2-0.4-5.7-1.6-7.4-3.3c-1.7-1.8-2.6-5.2-2.6-10.1V55.1c0-2.4-0.4-4-1.2-4.9c-0.8-0.9-2.4-1.3-4.7-1.3
		h-3.9V34.3h12.1c4.1,0,7.5,1.2,10,3.7c2.5,2.5,3.8,5.8,3.8,9.8v23.1c0,4.3,0.8,7.2,2.5,8.8c1.7,1.6,4.7,2.4,8.9,2.4v14.6
		c-4.3,0-7.3,0.8-8.9,2.3c-1.7,1.6-2.5,4.5-2.5,8.8v23.1c0,4.1-1.3,7.3-3.8,9.8c-2.5,2.5-5.9,3.7-10,3.7H344.4z"/>
</g>
</svg>
